<svg aria-hidden="true" style="position:absolute;width:0;height:0;overflow:hidden" xmlns="http://www.w3.org/2000/svg">
  <defs>
    <symbol id="icon-favorite" viewBox="0 0 32 32">
      <path stroke-linejoin="round" stroke-linecap="round" stroke-width="2.667" d="M27.787 6.147a7.345 7.345 0 0 0-5.187-2.15 7.33 7.33 0 0 0-5.186 2.15L16.001 7.56l-1.413-1.413a7.333 7.333 0 0 0-10.374 0 7.333 7.333 0 0 0 0 10.374l11.787 11.787 11.787-11.787a7.345 7.345 0 0 0 2.149-5.187 7.33 7.33 0 0 0-2.149-5.187z"/>
    </symbol>
    <symbol id="icon-close" viewBox="0 0 32 32">
      <path stroke-linejoin="round" stroke-linecap="round" stroke-width="2.4" d="M24 8 8 24M8 8l16 16"/>
    </symbol>
    <symbol id="icon-logo" viewBox="0 0 50 32" fill="white">
      <path d="M21.786.039a190.13 190.13 0 0 0-7.16.315l-1.22.079-.197.165c-1.263 1.051-2.405 2.188-3.228 3.22-.74.929-1.165 1.582-2.023 3.129-.315.563-.575 1.031-.583 1.039s-.059 0-.114-.012c-.169-.043-.216-.224-.216-.807 0-.575-.032-.693-.213-.748-.472-.154-1.515-.157-2.074-.008-.618.161-1.075.405-1.204.646-.102.185-.102.933 0 1.134.244.492.901.783 1.771.783.354 0 .374-.004.398-.091.067-.264.468-.551.83-.594l.197-.024-.268.094c-.15.055-.307.13-.35.169-.102.091-.189.26-.189.366 0 .071.024.079.295.079.283 0 .681.059.736.114.016.012-.098.165-.248.338-.488.555-.929 1.098-1.134 1.397-.216.311-.268.279-.106-.059.094-.201.5-.768.649-.901.047-.043.083-.091.083-.106 0-.039-.177.063-.74.425-1.263.815-2.366 1.807-4.003 3.59l-.665.724-.189.673c-.358 1.26-.567 2.48-.61 3.59l-.024.63.232.24c.216.22.461.374.803.508.138.055.138.055-.091.035a1.576 1.576 0 0 1-.787-.299l-.153-.126.024.331c.016.181.087 1.578.161 3.106s.142 2.854.146 2.948l.012.177.276.083c.153.047.37.134.484.193.213.11.539.374.5.409-.012.012-.22-.083-.461-.205-.244-.126-.52-.236-.61-.248l-.161-.02-.032.307c-.043.425-.035 1.448.02 1.925.094.846.213 1.582.283 1.787.185.531.685 1.11 1.149 1.342l.268.13 1.326-.024a378.59 378.59 0 0 1 3.334-.051c1.464-.02 2.039-.039 2.129-.075.146-.059.252-.264.252-.48v-.157l-.5-.004c-.492 0-.89-.059-1.271-.185l-.177-.055.315.016c.716.043 6.38.063 7.4.028.913-.032 1.189-.055 1.614-.138a19.07 19.07 0 0 1 1.988-.268c.693-.063 12.772-.063 13.461 0 .764.067 1.429.157 1.988.268.425.083.701.106 1.614.138 1.019.035 6.683.016 7.4-.028l.315-.016-.177.055a4.01 4.01 0 0 1-1.267.189l-.504.004v.154c0 .216.106.421.252.48.091.035.665.055 2.129.075 1.106.012 2.606.035 3.334.051l1.326.024.268-.13c.464-.232.964-.811 1.149-1.342.071-.205.189-.941.283-1.787.055-.476.063-1.5.02-1.925l-.032-.307-.161.02c-.091.012-.366.122-.61.248-.24.122-.449.216-.461.205-.039-.035.287-.299.5-.409.114-.059.335-.146.484-.193l.276-.083.012-.177.146-2.948c.075-1.527.146-2.924.161-3.106l.024-.331-.154.126c-.197.157-.5.272-.787.299-.228.02-.228.02-.091-.035.342-.134.586-.287.803-.508l.232-.24-.024-.63c-.043-1.11-.252-2.326-.61-3.598l-.189-.665-.933-1.008c-1.319-1.421-2.153-2.192-3.18-2.928-.764-.547-1.543-.996-1.212-.697.15.134.555.701.649.901.161.338.11.37-.102.063-.22-.319-.48-.642-1.035-1.283-.209-.24-.366-.445-.35-.457.055-.055.453-.114.736-.114.272 0 .295-.008.295-.079 0-.106-.087-.276-.185-.366a1.771 1.771 0 0 0-.35-.165l-.272-.098.197.024c.362.043.764.331.831.594.024.087.043.091.405.091.457 0 .838-.079 1.161-.232.299-.142.48-.315.606-.586.087-.189.094-.252.079-.59-.02-.453-.075-.583-.331-.76-.433-.295-1.047-.464-1.811-.496-.783-.032-1.303.063-1.389.248-.024.059-.043.311-.043.61 0 .575-.051.764-.224.807-.051.016-.102.02-.106.012a26.608 26.608 0 0 1-.417-.744c-1.071-1.94-1.547-2.669-2.476-3.779-.642-.771-1.94-2.035-2.94-2.865l-.197-.165-.787-.059c-1.535-.114-3.558-.22-5.644-.299-1.452-.051-7.183-.075-8.758-.035zm-7.97.544c-.287.197-.421.319-.492.449-.043.079-.067.153-.059.161.012.012.362-.012.779-.051C19.539.615 25.954.449 31.095.709a89.82 89.82 0 0 1 5.373.429c.346.039.638.063.649.055.008-.008-.016-.083-.059-.161-.071-.126-.177-.228-.492-.453-.055-.039-.012-.028.102.028.886.429 2.401 2.295 4.188 5.16.437.701 1.271 2.149 1.248 2.169-.008.008-.421-.012-.917-.043-7.726-.488-17.606-.602-25.974-.295a238.1 238.1 0 0 0-6.353.315 5.86 5.86 0 0 1-.583.028c-.039-.039 1.067-1.905 1.775-2.999 1.559-2.401 2.771-3.845 3.613-4.31.232-.13.299-.15.15-.047zm-3.543 12.465c.331.756.606 1.386.614 1.393.012.012.319.031.689.047.669.031 2.063.138 2.232.177.091.02.11.079.051.169-.031.047-.201.039-1.11-.051-.594-.055-1.271-.118-1.511-.134l-.429-.028-.583-1.456c-.52-1.299-.622-1.57-.567-1.511.008.008.283.634.614 1.393zm29.894.087c-.315.795-.59 1.46-.602 1.472-.016.016-.339.047-.716.071a71.53 71.53 0 0 0-1.409.122c-.905.098-.901.098-.933-.004-.016-.051-.008-.094.016-.114.063-.035 1.519-.157 2.314-.193.354-.016.645-.035.657-.047.008-.008.287-.638.618-1.401s.61-1.378.618-1.37c.008.008-.244.665-.563 1.464zm-34.145.751c1.334.433 2.177.594 3.621.685l.771.047 1.263 2.499c1.37 2.712 1.508 3.011 2.074 4.55.209.563.48 1.279.602 1.594.768 1.98 1.539 3.235 2.692 4.373l.461.457.405.087c1.283.268 2.48.37 5.014.425l1.378.032-.787.032c-.433.016-1.496.024-2.362.012-1.669-.02-2.263-.063-3.318-.24-.665-.114-.606-.075-1.248-.819-1.346-1.559-2.007-2.791-3.031-5.656-.417-1.161-.681-1.826-.984-2.468l-.224-.476-.362-.024c-.197-.012-.783-.039-1.303-.063-4.074-.181-7.097-.551-8.329-1.027-.386-.15-.59-.299-.764-.555-.252-.386-.264-.897-.055-2.44l.087-.622.653-.213c1.37-.449 1.622-.5 2.366-.48l.531.012.846.279zm40.526-.248c.401.071.645.138 1.555.437l.653.213.087.622c.209 1.535.197 2.059-.055 2.44-.173.256-.378.405-.764.555-1.228.472-4.263.846-8.329 1.027-.52.024-1.106.051-1.303.063l-.362.024-.224.476c-.323.685-.508 1.149-.984 2.464-.586 1.622-.728 1.972-1.122 2.779a12.83 12.83 0 0 1-1.933 2.913c-.618.712-.559.673-1.236.787-1.027.173-1.673.22-3.326.24-.854.012-1.909.004-2.342-.012l-.787-.032 1.378-.032c2.523-.055 3.739-.157 5.014-.425l.405-.087.461-.457c1.149-1.134 1.933-2.409 2.692-4.373.122-.315.401-1.059.622-1.653.559-1.508.669-1.752 2.074-4.53l1.244-2.46.771-.047c1.421-.091 2.291-.252 3.554-.665.429-.138.854-.268.945-.283.276-.055.941-.047 1.311.016zm-26.317.178c1.094.067 3.263.264 3.688.335.102.02.161.071.287.252.098.15.197.248.272.272.146.051.146.043.216.972.161 2.047.098 3.153-.216 3.838-.165.358-.279.492-.527.61l-.213.106-2.255.02c-2.822.028-3.763-.02-4.578-.232-1.417-.37-2.346-1.315-2.696-2.743-.209-.838-.185-2.047.051-2.61.185-.445 1.228-.764 2.799-.858.63-.039 2.208-.016 3.172.039zm13.765.019c.905.106 1.445.252 1.818.492.26.169.339.299.417.72.307 1.645-.213 3.357-1.279 4.212a3.69 3.69 0 0 1-.854.516c-.964.401-1.834.476-5.2.445l-2.255-.02-.224-.11c-.382-.193-.594-.594-.744-1.405-.091-.492-.087-1.972.004-3.039.035-.433.075-.819.087-.858.012-.035.079-.094.154-.122a.543.543 0 0 0 .232-.232c.059-.098.13-.201.161-.224.126-.106 2.869-.354 4.94-.449.586-.028 2.247.02 2.743.075zm-24.53 11.06c1.33.075 3.806.252 3.822.268.008.008-.008.043-.035.083-.051.067-.11.067-1.35-.032-2.047-.161-2.255-.177-3.598-.224-1.362-.047-2.61-.012-3.531.102l-.48.059a.898.898 0 0 0 .138.114c.323.236.472.496.512.897.083.783-.575 1.401-1.476 1.386l-.299-.008.272-.032c.35-.047.567-.146.807-.37.5-.468.5-1.224 0-1.708a.952.952 0 0 0-.264-.189c-.173-.043-1.059.236-1.417.449a2.322 2.322 0 0 0-.378.283l-.193.181.094-.169c.216-.394.689-.732 1.256-.905.311-.094.893-.193 1.437-.244.563-.051 3.432-.016 4.684.059zm36.062-.059c.618.051 1.169.142 1.508.244.575.177 1.047.516 1.256.901l.094.173-.173-.165a2.796 2.796 0 0 0-.409-.307c-.248-.146-.968-.398-1.26-.441-.165-.02-.181-.016-.386.181-.527.5-.539 1.236-.024 1.716.24.224.457.323.807.37l.272.032-.303.008c-1.082.016-1.771-.89-1.366-1.803.091-.205.189-.323.405-.48.083-.063.146-.114.138-.114l-.48-.059c-.921-.114-2.169-.15-3.531-.102-1.342.047-1.551.063-3.594.224-1.252.098-1.295.098-1.346.028-.028-.039-.047-.075-.043-.083.032-.032 3.893-.276 5.318-.335.736-.032 2.669-.024 3.117.012zm-27.816.709c3.322.232 5.156.291 8.51.264 1.5-.012 3.054-.039 3.456-.063 1.326-.075 2.629-.169 3.357-.236.394-.039.72-.067.728-.059.024.016-.398.744-.594 1.031-.401.583-.807.941-1.185 1.051-.523.154-1.795.291-3.507.382-1.22.063-5.601.063-6.809 0-2.153-.114-3.271-.256-3.708-.464-.429-.209-.893-.736-1.342-1.539a6.041 6.041 0 0 1-.244-.457c0-.016.047-.016.11-.008.059.012.61.055 1.228.098zm-9.435.736a2.34 2.34 0 0 1-.335 0c-.094-.008-.02-.016.165-.016s.26.008.169.016zm34.165 0a2.34 2.34 0 0 1-.335 0c-.094-.008-.02-.016.165-.016s.26.008.169.016zm-30.575.134 2.165.087.106.122c.059.067.106.13.11.146 0 .012-.256-.012-.571-.051a70.65 70.65 0 0 0-3.247-.287l-1.456-.098-.531-.035.63.016c.346.008 1.606.051 2.795.102zm29.54-.079c-2.102.13-3.657.256-4.704.382-.315.039-.571.063-.571.051a.767.767 0 0 1 .11-.146l.106-.122 2.263-.087c1.244-.047 2.291-.094 2.322-.098.032-.008.272-.016.531-.012h.472l-.531.032zm-25.584 2.688c3.094.185 4.566.22 9.368.22 5.164 0 7.148-.059 10.797-.307.413-.028.421-.028.421.055 0 .079-.024.083-.5.106l-1.606.087c-3.235.169-4.334.193-9.132.193-4.806 0-5.731-.02-9.151-.197-2.043-.102-2.027-.102-2.039-.193-.012-.079 0-.079.413-.051.232.016.878.055 1.429.087zm-12.647.677c-.012.012-.047.016-.075.004-.031-.012-.02-.024.024-.024.043-.004.067.008.051.02zm44.123 0c-.012.012-.047.016-.075.004-.032-.012-.02-.024.024-.024.043-.004.067.008.051.02zm-41.977.174c3.971.354 4.967.413 6.447.382 1.161-.024 1.795-.102 2.342-.283.177-.059-.122.138-.335.22-1.161.445-4.404.315-10.057-.409-.791-.102-.201-.067 1.602.091zm41.34-.091c-2.846.362-4.955.567-6.774.645-1.866.083-3.192-.063-3.598-.401-.083-.067-.083-.079-.02-.055.551.185 1.181.26 2.362.283 1.484.032 2.621-.039 6.376-.382 1.708-.154 2.468-.197 1.653-.091z"/>
      <path d="M2.936 14.819a2.154 2.154 0 0 0-.055 2.078c.551 1.031 1.846 1.374 2.81.74.126-.083.287-.213.358-.283.126-.138.405-.571.405-.638 0-.02-.091.047-.205.15-1.26 1.134-3.263.177-3.259-1.555 0-.161.02-.374.043-.468a.657.657 0 0 0 .024-.189c-.012-.008-.067.067-.122.165zM8.553 16.949c-.189.417-.075.992.26 1.283.539.476 1.358.335 1.681-.287l.059-.114-.181.134c-.543.417-1.291.236-1.594-.382-.114-.236-.126-.287-.11-.555.008-.165.008-.299 0-.299s-.059.098-.114.22zM47.331 14.721c.067.248.067.846 0 1.102-.232.897-1.035 1.535-1.929 1.535-.468 0-.988-.205-1.311-.516-.091-.091-.165-.15-.165-.138 0 .075.213.421.358.59.642.724 1.748.87 2.551.335.307-.205.523-.457.693-.803.252-.52.283-1.122.087-1.641-.106-.279-.339-.653-.283-.464zM41.714 17.027c.016.268.004.319-.11.555-.189.382-.516.594-.925.598a.96.96 0 0 1-.669-.216l-.181-.134.059.114c.181.35.547.571.945.571.433-.004.768-.213.964-.614a1.08 1.08 0 0 0 .024-.968c-.051-.11-.098-.205-.106-.205s-.008.134 0 .299zM14.579 15.024c-.035.189.008.85.087 1.291.083.472.26 1.015.417 1.275.169.283.24.307.213.079a38.788 38.788 0 0 1-.083-1.315 48.066 48.066 0 0 0-.083-1.311l-.02-.165h-.504l-.028.146zM15.311 15.024c0 .193.161 2.905.177 2.952.02.055.527.342.559.315.028-.032-.165-3.271-.201-3.33-.016-.024-.134-.043-.283-.043-.248 0-.252 0-.252.106zM16.059 15.142c.004.461.193 3.251.224 3.279.051.047.492.201.516.177.035-.032-.161-3.538-.201-3.594-.024-.028-.134-.047-.287-.047h-.252v.185zM16.807 15.103c0 .161.154 2.976.181 3.306l.024.287.142.039c.079.024.209.051.283.063l.138.024-.091-1.866a85.655 85.655 0 0 0-.106-1.913c-.012-.031-.106-.047-.295-.047-.276 0-.276 0-.276.106zM17.555 15.063c0 .02.043.874.098 1.901s.098 1.881.098 1.893c0 .028.555.126.575.102.02-.016-.177-3.814-.201-3.877-.02-.051-.571-.071-.571-.02zM23.876 15.063l-.154.016.024.52c.039 1.008.157 3.314.169 3.33.008.008.039-.008.071-.032.102-.083.216-.382.299-.779.154-.728.15-2.33-.012-2.889-.055-.189-.083-.201-.398-.165zM18.322 15.221c.008.083.055.956.102 1.94s.098 1.807.114 1.822c.016.016.15.043.299.055l.276.024-.016-.311-.102-1.984-.083-1.673-.61-.024.02.15zM19.106 15.457c.012.213.063 1.11.106 1.999.043.886.087 1.618.087 1.622.004.004.138.02.295.032l.283.032v-.154c0-.236-.193-3.842-.205-3.853a4.015 4.015 0 0 0-.303-.035l-.291-.024.028.382zM23.156 15.103c-.13.012-.209.035-.209.063s.043.89.098 1.917c.055 1.027.098 1.897.098 1.929 0 .051.047.059.268.047.146-.008.279-.028.295-.047.016-.016-.012-.897-.067-1.956l-.102-1.952c0-.016-.039-.024-.087-.02l-.295.02zM19.877 15.319c.004.311.189 3.775.205 3.786.035.032.543.055.559.028.02-.032-.169-3.889-.193-3.971-.012-.031-.106-.047-.295-.047h-.276v.205zM20.652 15.142c-.016.024.075 1.901.177 3.79l.012.216h.59l-.012-.157-.087-1.811a98.234 98.234 0 0 0-.102-1.862l-.02-.205h-.272c-.15 0-.279.012-.287.028zM21.412 15.221c0 .063.043.953.098 1.98s.098 1.881.098 1.897c0 .02.134.032.295.032.201 0 .295-.016.295-.047 0-.213-.201-3.881-.216-3.92-.012-.031-.11-.047-.295-.047-.276 0-.276 0-.276.106zM22.191 15.142c-.024.047.181 3.936.209 3.964.012.016.146.016.295 0l.272-.024-.012-.303-.102-1.972-.083-1.673-.283-.012c-.154-.008-.287.004-.295.02zM35.251 15.004c-.012.071-.047.661-.083 1.311-.032.649-.071 1.26-.083 1.354-.028.228.043.205.213-.079.157-.26.335-.803.417-1.275.079-.441.122-1.102.087-1.291l-.028-.146h-.504l-.02.126zM34.535 14.961c-.035.059-.228 3.298-.201 3.33.032.028.539-.26.559-.315.012-.043.181-2.838.177-2.991 0-.055-.039-.067-.252-.067-.15 0-.268.02-.283.043zM33.783 14.985c-.032.012-.051.087-.051.181 0 .091-.035.893-.087 1.787-.047.893-.075 1.633-.063 1.645.024.024.461-.126.516-.177.032-.028.22-2.846.224-3.298v-.165l-.244.004c-.138 0-.272.012-.295.024zM33.004 15.044c-.02.063-.205 3.747-.189 3.767.012.02.461-.075.52-.11.032-.02.075-.59.142-1.759.055-.949.098-1.775.098-1.838 0-.106 0-.106-.276-.106-.189 0-.283.016-.295.047zM26.143 15.103c-.146.283-.209 2.082-.094 2.802.087.539.279 1.027.409 1.027.016 0 .032-.138.032-.307 0-.165.016-.559.035-.874.067-1.035.138-2.637.118-2.653a1.133 1.133 0 0 0-.24-.039c-.193-.024-.228-.02-.26.043zM32.256 15.083c-.024.067-.22 3.857-.201 3.877.008.008.138-.008.295-.032.209-.035.279-.063.279-.11 0-.035.043-.878.098-1.874s.098-1.834.098-1.862c0-.031-.083-.047-.276-.047-.185 0-.283.016-.295.047zM26.828 15.421c-.047.653-.189 3.594-.177 3.609.008.004.142.02.295.028l.283.016.024-.457c.094-1.728.181-3.476.173-3.483a3.861 3.861 0 0 0-.291-.035l-.283-.024-.024.346zM30.91 15.103l-.201.016-.024.283c-.032.358-.181 3.377-.181 3.586v.154l.287-.032c.154-.012.287-.028.287-.032.004-.004.047-.752.091-1.661.047-.909.094-1.807.11-1.999l.024-.342-.094.008-.299.02zM31.473 15.122c-.008.028-.055.858-.098 1.842a78.432 78.432 0 0 1-.106 1.944l-.02.154.283-.024c.157-.012.295-.039.311-.055s.067-.854.114-1.862a65.67 65.67 0 0 1 .106-1.94l.024-.106h-.303c-.205 0-.303.016-.311.047zM27.615 15.162c-.008.028-.055.858-.098 1.842-.047.984-.094 1.854-.102 1.933l-.02.142.283.024c.157.012.291.016.303.004.016-.016.087-1.24.189-3.314.016-.354.024-.653.016-.661s-.138-.016-.287-.016c-.181 0-.276.016-.283.047zM28.402 15.15c-.016.024-.22 3.649-.22 3.912 0 .055.043.067.295.067.22 0 .295-.012.295-.051 0-.047.098-1.925.181-3.483l.024-.48h-.276c-.154 0-.287.016-.299.035zM29.15 15.28c-.012.094-.059.929-.102 1.862l-.087 1.85-.012.157h.59l.047-.945.106-1.988c.031-.575.047-1.055.035-1.075-.008-.016-.138-.028-.287-.028h-.272l-.02.165zM29.914 15.24c0 .071-.043.972-.098 1.999s-.083 1.878-.067 1.893c.016.016.146.02.291.008l.264-.024.02-.279c.032-.374.181-3.346.181-3.558v-.165h-.59v.126z"/>
    </symbol>
  </defs>
</svg>
